<?xml version="1.0" encoding="UTF-8"?>
<svg version="1.1" xmlns="http://www.w3.org/2000/svg" width="109" height="77">
<path d="M0 0 C0.99 0 1.98 0 3 0 C5 2.3125 5 2.3125 7 5 C7.43957031 5.433125 7.87914062 5.86625 8.33203125 6.3125 C10.62617693 8.63350922 12.6312286 11.15441204 14.6875 13.6875 C15.49574219 14.68136719 16.30398437 15.67523438 17.13671875 16.69921875 C17.75160156 17.45847656 18.36648437 18.21773437 19 19 C18.38125 18.071875 17.7625 17.14375 17.125 16.1875 C14.37123994 11.44165819 13.7380255 6.37010661 13 1 C13.99 1 14.98 1 16 1 C16.27972656 1.65226563 16.55945313 2.30453125 16.84765625 2.9765625 C20.27429528 10.44685594 23.7142017 15.31629352 31.5 18.375 C39.69425805 19.83826037 45.89946022 18.79582258 52.75 14.125 C57.01424102 10.09766126 59.41213808 6.68983855 61 1 C61.99 1 62.98 1 64 1 C63.02471145 14.6540397 54.39695737 23.65437522 45.25 33.1875 C43.89648438 34.60095703 43.89648438 34.60095703 42.515625 36.04296875 C40 38 40 38 37.875 37.9921875 C35.76432821 36.87529035 34.38064478 35.67932511 32.75 33.9375 C32.22921875 33.38964844 31.7084375 32.84179688 31.171875 32.27734375 C30.78515625 31.85582031 30.3984375 31.43429688 30 31 C30.95729916 32.12588014 31.91587895 33.2506715 32.875 34.375 C33.40867188 35.00148437 33.94234375 35.62796875 34.4921875 36.2734375 C35.61432007 37.55836651 36.79371975 38.79371975 38 40 C38 40.99 38 41.98 38 43 C31.50519812 43.53725383 26.19748568 43.70151582 20.83349609 39.64526367 C14.94486959 34.36118191 11.79951301 25.84633006 8.375 18.875 C7.65957031 17.43060547 7.65957031 17.43060547 6.9296875 15.95703125 C6.01653629 14.11297311 5.1059062 12.26766361 4.19824219 10.42089844 C3.20673954 8.41769139 2.19093527 6.43043934 1.1640625 4.4453125 C0 2 0 2 0 0 Z " fill="#6E5B4F" transform="translate(16,8)"/>
<path d="M0 0 C0.99 0 1.98 0 3 0 C0.93780885 6.63131031 -2.10757723 12.73275187 -5.17504883 18.94042969 C-5.84828337 20.30995142 -6.51435466 21.68301855 -7.1730957 23.05957031 C-14.01859267 37.36277706 -14.01859267 37.36277706 -21 42 C-24.14930893 43.04976964 -26.38814456 43.10131595 -29.6875 43.0625 C-30.68136719 43.05347656 -31.67523438 43.04445312 -32.69921875 43.03515625 C-33.83810547 43.01775391 -33.83810547 43.01775391 -35 43 C-35 42.01 -35 41.02 -35 40 C-34.34 40 -33.68 40 -33 40 C-32.77441406 39.45472656 -32.54882812 38.90945312 -32.31640625 38.34765625 C-30.60856533 35.30192214 -28.32941987 32.94683472 -25.9375 30.4375 C-21.41431911 25.60417518 -17.15205367 20.62480723 -12.99609375 15.46875 C-10.82901733 12.78853023 -8.60485631 10.16786153 -6.33984375 7.5703125 C-5.41112388 6.48184198 -4.50891525 5.37040417 -3.62890625 4.2421875 C-2.48103441 2.77754391 -1.2467085 1.38148779 0 0 Z " fill="#6E5B4F" transform="translate(90,8)"/>
<path d="M0 0 C4.05876394 0.51191617 5.68826982 2.42592378 8.25 5.5 C11.48748049 9.7220128 13.06559778 12.67866946 12.52734375 18.0234375 C11.41758246 22.18298721 9.26317063 24.26869069 5.625 26.375 C2.30935265 27.16443985 0.27357609 26.95479302 -3 26 C-7.57627119 22.84745763 -7.57627119 22.84745763 -9 20 C-9.65824077 12.10111073 -7.18885771 8.64731082 -2.25 2.625 C-1.5075 1.75875 -0.765 0.8925 0 0 Z " fill="#6E5B4F" transform="translate(53,0)"/>
<path d="M0 0 C1.65 0 3.3 0 5 0 C5.99 1.98 6.98 3.96 8 6 C9.50559539 4.03617993 10.89131683 2.21736634 12 0 C14.33333333 0 16.66666667 0 19 0 C20.12728516 -0.03480469 20.12728516 -0.03480469 21.27734375 -0.0703125 C22.15519531 -0.08835938 23.03304687 -0.10640625 23.9375 -0.125 C24.81277344 -0.14820313 25.68804687 -0.17140625 26.58984375 -0.1953125 C29 0 29 0 32 2 C32.27668225 4.59426798 32.37295242 6.91263646 32.3125 9.5 C32.31572266 10.18964844 32.31894531 10.87929687 32.32226562 11.58984375 C32.26712592 16.73287408 32.26712592 16.73287408 30 19 C27.25 19.30078125 27.25 19.30078125 24 19.3125 C22.9275 19.32925781 21.855 19.34601563 20.75 19.36328125 C19.8425 19.24339844 18.935 19.12351562 18 19 C15.81005752 15.71508627 15.64722661 14.16904361 15.375 10.3125 C15.26285156 8.82169922 15.26285156 8.82169922 15.1484375 7.30078125 C15.09945312 6.54152344 15.05046875 5.78226563 15 5 C11.68557793 9.46726453 11.33990833 13.62007164 11 19 C9.35 19 7.7 19 6 19 C5.85304688 18.03900391 5.85304688 18.03900391 5.703125 17.05859375 C4.68724966 11.18228035 3.15104904 7.04167846 0 2 C0 1.34 0 0.68 0 0 Z M21 4 C21 7.63 21 11.26 21 15 C23.31 15 25.62 15 28 15 C28.02688151 13.35425434 28.04634123 11.70838587 28.0625 10.0625 C28.07410156 9.14597656 28.08570313 8.22945312 28.09765625 7.28515625 C28.25949049 5.03406673 28.25949049 5.03406673 27 4 C25.00041636 3.95919217 22.99954746 3.95745644 21 4 Z " fill="#6E5B4F" transform="translate(77,58)"/>
<path d="M0 0 C1.32 0 2.64 0 4 0 C4 0.99 4 1.98 4 3 C5.65 3.33 7.3 3.66 9 4 C9 4.66 9 5.32 9 6 C7.35 6.33 5.7 6.66 4 7 C4 9.97 4 12.94 4 16 C4.66 15.67 5.32 15.34 6 15 C6 14.34 6 13.68 6 13 C7.32 13 8.64 13 10 13 C10 10.03 10 7.06 10 4 C10.99 4 11.98 4 13 4 C13 7.96 13 11.92 13 16 C14.98 15.67 16.96 15.34 19 15 C19.33 11.37 19.66 7.74 20 4 C20.99 4 21.98 4 23 4 C23 8.95 23 13.9 23 19 C14.6015625 19.1953125 14.6015625 19.1953125 12 19 C11.34 18.34 10.68 17.68 10 17 C9.34 17.66 8.68 18.32 8 19 C4.375 19.125 4.375 19.125 1 19 C-0.19785364 16.60429272 -0.28077318 14.72845473 -0.5 12.0625 C-0.74363648 9.10840763 -1.05630488 6.83108535 -2 4 C-1.34 4 -0.68 4 0 4 C0 2.68 0 1.36 0 0 Z " fill="#6E5B4F" transform="translate(29,58)"/>
<path d="M0 0 C1.98 0 3.96 0 6 0 C8.70071112 6.27980887 10.70024676 12.28460827 12 19 C10.35 18.67 8.7 18.34 7 18 C7 17.34 7 16.68 7 16 C4.36 16 1.72 16 -1 16 C-1 16.99 -1 17.98 -1 19 C-2.65 19 -4.3 19 -6 19 C-4.3186083 12.51292846 -2.46937673 6.2322365 0 0 Z M3 5 C2.34 7.31 1.68 9.62 1 12 C2.65 12 4.3 12 6 12 C5.34 9.69 4.68 7.38 4 5 C3.67 5 3.34 5 3 5 Z " fill="#6E5B4F" transform="translate(69,58)"/>
<path d="M0 0 C1.44207941 2.88415883 1.09394887 5.41721528 1.0625 8.625 C1.05347656 9.81351563 1.04445313 11.00203125 1.03515625 12.2265625 C1.02355469 13.14179687 1.01195312 14.05703125 1 15 C-0.97909398 15.02686553 -2.95828971 15.04633375 -4.9375 15.0625 C-6.03964844 15.07410156 -7.14179688 15.08570312 -8.27734375 15.09765625 C-11 15 -11 15 -12 14 C-12.04241723 11.66705225 -12.04092937 9.33297433 -12 7 C-12 6.34 -12 5.68 -12 5 C-11.68197057 3.33034549 -11.35015049 1.66321482 -11 0 C-6.88825414 -1.37058195 -4.26339405 -0.75640862 0 0 Z M-8 2 C-8.33 2.99 -8.66 3.98 -9 5 C-6.69 5.33 -4.38 5.66 -2 6 C-2.33 4.68 -2.66 3.36 -3 2 C-4.65 2 -6.3 2 -8 2 Z M-8 8 C-8.33 9.32 -8.66 10.64 -9 12 C-5.41672247 13.00217064 -5.41672247 13.00217064 -2 12 C-2.33 10.68 -2.66 9.36 -3 8 C-4.65 8 -6.3 8 -8 8 Z " fill="#6E5B4F" transform="translate(26,62)"/>
<path d="M0 0 C2 2 2 2 2.1953125 5.0390625 C2.17210937 6.22242187 2.14890625 7.40578125 2.125 8.625 C2.10695313 9.81351563 2.08890625 11.00203125 2.0703125 12.2265625 C2.04710937 13.14179687 2.02390625 14.05703125 2 15 C1.01 15 0.02 15 -1 15 C-1 11.04 -1 7.08 -1 3 C-3.31 3 -5.62 3 -8 3 C-8 6.96 -8 10.92 -8 15 C-8.99 15 -9.98 15 -11 15 C-11 10.05 -11 5.1 -11 0 C-6.49409249 -0.9011815 -4.31331799 -1.05436662 0 0 Z " fill="#6E5B4F" transform="translate(11,62)"/>
<path d="M0 0 C0.99 0.66 1.98 1.32 3 2 C3.1875 4.625 3.1875 4.625 3 7 C2.01 7 1.02 7 0 7 C0 5.68 0 4.36 0 3 C-2.05488356 3.5882524 -2.05488356 3.5882524 -4 5 C-4.70373017 7.64787088 -4.70373017 7.64787088 -4.75 10.625 C-4.80671875 11.62789062 -4.8634375 12.63078125 -4.921875 13.6640625 C-4.94765625 14.43492188 -4.9734375 15.20578125 -5 16 C-5.99 16 -6.98 16 -8 16 C-8 11.05 -8 6.1 -8 1 C-5.22899606 -0.38550197 -3.0665294 -0.1877467 0 0 Z " fill="#6E5B4F" transform="translate(62,61)"/>
</svg>
